<svg width="110" height="31" viewBox="0 0 110 31" fill="none" xmlns="http://www.w3.org/2000/svg">
<path d="M37.1025 6.93089C37.0873 6.7143 37.0494 6.17028 36.1694 6.17028C35.5323 6.17028 35.3197 6.56962 35.3197 6.83951C35.3197 7.38353 36.0555 7.68811 36.8519 7.92331C38.5436 8.39456 40.3416 8.89712 40.3416 11.0656C40.3416 13.1807 38.4905 14.4811 36.2748 14.4811C34.7578 14.4811 32.4738 13.7966 32.2004 11.1569H35.1746C35.3037 12.0774 36.1837 12.0774 36.3052 12.0774C36.8131 12.0774 37.3523 11.7881 37.3523 11.3016C37.3523 10.5258 36.6165 10.4344 34.7046 9.69665C33.407 9.27785 32.3304 8.4301 32.3304 7.07556C32.3304 5.08648 34.1284 3.77002 36.1997 3.77002C37.5202 3.77002 39.7881 4.29119 40.0387 6.93089H37.1025V6.93089Z" fill="white"/>
<path d="M41.3127 4.11183H44.1047V5.17701H44.135C44.3704 4.76244 45.0226 3.77002 46.8966 3.77002C47.7766 3.77002 48.9831 4.0746 49.7796 5.55774C50.3862 4.58054 51.4181 3.77002 52.9512 3.77002C53.6489 3.77002 54.7719 3.92992 55.576 4.7819C56.5168 5.77433 56.6611 6.44017 56.6611 8.6653V14.1393H53.6717V8.80998C53.6717 7.99607 53.6717 6.58485 52.1395 6.58485C50.4782 6.58485 50.4782 8.10606 50.4782 8.6653V14.1393H47.4889V8.68476C47.4889 8.14075 47.4889 6.58485 45.9946 6.58485C44.3029 6.58485 44.3029 8.21266 44.3029 8.80998V14.1393H41.3136V4.11183H41.3127Z" fill="white"/>
<path d="M68.7542 14.1384H65.7649V13.0546H65.7269C65.2266 14.0318 63.9821 14.4811 62.8059 14.4811C59.6343 14.4811 57.7832 11.9895 57.7832 9.11794C57.7832 5.82763 60.1423 3.77002 62.8059 3.77002C64.4521 3.77002 65.37 4.56108 65.7269 5.17701H65.7649V4.11183H68.7542V14.1384ZM63.2616 11.6815C65.1355 11.6815 65.7649 10.0918 65.7649 9.11794C65.7649 7.9047 64.938 6.56962 63.2388 6.56962C61.5319 6.56962 60.7734 8.01469 60.7734 9.15263C60.7725 10.0918 61.456 11.6815 63.2616 11.6815Z" fill="white"/>
<path d="M80.3615 4.11168H81.8026V6.38673H80.3615V14.1391H77.3721V6.38673H75.8931V4.11168H77.3721V0.768066H80.3615V4.11168Z" fill="white"/>
<path d="M50.3608 15.5647H53.1603V16.6299H53.1907C53.5021 16.1434 54.1315 15.2229 55.9143 15.2229C56.8702 15.2229 57.9325 15.6189 58.4708 16.0901C59.0091 16.558 59.6242 17.3533 59.6242 19.3237V25.5922H56.6348V20.1182C56.6348 19.4143 56.6348 18.0377 55.0646 18.0377C53.3578 18.0377 53.3578 19.5209 53.3578 20.1376V25.5922H50.3608V15.5647V15.5647Z" fill="white"/>
<path d="M66.1488 15.2383C69.7904 15.2383 71.5352 18.114 71.5352 20.571C71.5352 23.0279 69.7904 25.9003 66.1488 25.9003C62.5073 25.9003 60.7625 23.0288 60.7625 20.571C60.7625 18.1132 62.5073 15.2383 66.1488 15.2383ZM66.1488 23.0965C67.4465 23.0965 68.5459 22.0313 68.5459 20.571C68.5459 19.1065 67.4456 18.0379 66.1488 18.0379C64.852 18.0379 63.7518 19.1065 63.7518 20.571C63.7518 22.0313 64.8512 23.0965 66.1488 23.0965Z" fill="white"/>
<path d="M72.696 13.0622L75.693 11.6814V25.5923H72.696V13.0622Z" fill="white"/>
<path d="M82.2404 15.2383C85.8819 15.2383 87.6268 18.114 87.6268 20.571C87.6268 23.0279 85.8819 25.9003 82.2404 25.9003C78.5988 25.9003 76.854 23.0288 76.854 20.571C76.854 18.1132 78.598 15.2383 82.2404 15.2383ZM82.2404 23.0965C83.538 23.0965 84.6374 22.0313 84.6374 20.571C84.6374 19.1065 83.5372 18.0379 82.2404 18.0379C80.9436 18.0379 79.8433 19.1065 79.8433 20.571C79.8425 22.0313 80.9427 23.0965 82.2404 23.0965Z" fill="white"/>
<path d="M99.1504 24.3826C99.1504 25.8809 99.0441 26.8395 98.5589 27.6881C97.7852 28.9547 95.9644 30.0537 93.4906 30.0537C90.0161 30.0537 88.7033 27.958 88.5058 26.5316H91.9651C92.3904 27.524 93.5125 27.524 93.71 27.524C94.0897 27.524 96.1374 27.4901 96.1374 24.7963V24.4883H96.107C95.7957 25.0662 94.9309 25.9182 93.3683 25.9182C90.6447 25.9182 88.3228 23.8563 88.3228 20.6388C88.3228 17.208 90.773 15.2375 93.3683 15.2375C94.4837 15.2375 95.5839 15.6369 96.1222 16.5041H96.1602V15.565H99.1495V24.3826H99.1504ZM93.7108 23.116C95.1519 23.116 96.161 22.0703 96.161 20.6244C96.161 19.0152 95.0608 18.038 93.726 18.038C92.4511 18.038 91.3138 19.0685 91.3138 20.533C91.3138 22.1422 92.4663 23.116 93.7108 23.116Z" fill="white"/>
<path d="M101.6 29.4724H104.791L110 15.5649H106.829L104.917 21.3816H104.879L102.883 15.5649H99.6897L103.407 25.0865L101.6 29.4724Z" fill="white"/>
<path d="M75.5169 3.78516C73.9762 3.86553 73.4835 4.71328 73.2371 5.17692H73.2068V4.11173H70.3921V13.0038L73.3814 11.6332V8.62629C73.3814 7.19392 74.2581 6.85973 75.5169 6.79712V3.78516V3.78516Z" fill="white"/>
<path d="M29.2049 0H0V29.2854H29.2049V0Z" fill="white"/>
<path d="M24.7483 21.218H14.4185V24.5142H24.7483V21.218Z" fill="#0095D2"/>
<path d="M16.3246 10.9133L16.3271 10.9107L9.02212 3.58643L6.69849 5.91647L11.6807 10.9133L6.69849 15.9092L9.02212 18.2401L16.3271 10.9158L16.3246 10.9133Z" fill="#0095D2"/>
</svg>
